<?xml version="1.0" encoding="UTF-8"?>
<svg width="1200pt" height="1200pt" version="1.1" viewBox="0 0 1200 1200" xmlns="http://www.w3.org/2000/svg">
 <path d="m551.07 140.23-311.33 311.32c-26.773 26.785-26.773 70.223 0 96.973 26.762 26.785 70.199 26.785 96.984 0l194.26-194.26v659.04c0 37.871 30.707 68.578 68.578 68.578s68.578-30.707 68.578-68.578v-659.04l194.25 194.26c26.762 26.785 70.211 26.785 96.984 0 13.379-13.379 20.09-30.938 20.09-48.492 0-17.543-6.707-35.113-20.09-48.48l-311.32-311.32c-26.781-26.793-70.199-26.793-96.984 0z"/>
</svg>
